# xmcd
# 
# Track frame offsets:
#     183
#     13640
#     26155
#     40425
#     56545
#     68493
#     80723
#     96168
#     114140
#     129600
#     141933
#     156193
#     167810
#     180520
#     194548
#     206718
#     219795
# 
# Disc length: 3105
# 
# Revision: 3
# Processed by: cddbd v1.5.2PL0 Copyright (c) Steve Scherf et al.
# Submitted via: fre:ac v1.0.27
# 
DISCID=ed0c1f11
DTITLE=Various Artist - Country And Western - Hits 1970-79 Vol 3
DYEAR=1985
DGENRE=Country
TTITLE0=Lynn Anderson - Rose Garden
TTITLE1=Jack and Misty - Tennessee Birdwalk
TTITLE2=Margo Smith - It Only Hurts For A Little While
TTITLE3=Johnny Russell - Luchenbach Texas
TTITLE4=Johnny Paycheck - Take This Job And Shove It
TTITLE5=La Costa Tucker - He Took Me For A Ride
TTITLE6=Melba Montgomery - No Charge
TTITLE7=David Houston - Nashville
TTITLE8=Red Simpson - I'm A Truck
TTITLE9=Johnny Russell - Rednecks, White Socks And Blue Ribbon Beer
TTITLE10=Bob Luman - Lonely Women Make Good Lovers
TTITLE11=Sammi Smith - Help Me Make It Through The Night
TTITLE12=Kenny Price - Sheriff Of Boone County
TTITLE13=Anthony Armstrong Jones - Take A Letter Maria
TTITLE14=Donna Fargo - Funny Face
TTITLE15=Faron Young - It's Four In The Morning
TTITLE16=Dave Dudley - The Pool Shark
EXTD=
EXTT0=
EXTT1=
EXTT2=
EXTT3=
EXTT4=
EXTT5=
EXTT6=
EXTT7=
EXTT8=
EXTT9=
EXTT10=
EXTT11=
EXTT12=
EXTT13=
EXTT14=
EXTT15=
EXTT16=
PLAYORDER=
